<svg width="114" height="29" viewBox="0 0 114 29" fill="none" xmlns="http://www.w3.org/2000/svg">
<rect x="0.000488281" y="13.812" width="32" height="1.54334" rx="0.771672" fill="#E3B873"/>
<rect x="82.0005" y="13.812" width="32" height="1.54334" rx="0.771672" fill="#E3B873"/>
<path d="M73.8511 9.76529L49.7306 0.829062C49.4221 0.715056 49.0793 0.872814 48.9655 1.18158C48.9653 1.18183 48.9653 1.18208 48.965 1.18233L46.2949 8.45047C46.1814 8.75923 46.3396 9.10175 46.6484 9.21526H46.6489L49.4448 10.2418L48.8288 11.9202C48.7155 12.2289 48.8738 12.5709 49.1825 12.6844L54.7753 14.7378L54.3643 15.8566C53.9908 16.8587 54.3393 17.9867 55.2134 18.603V21.6432H47.1974C46.8094 20.7561 46.0154 20.1121 45.0671 19.9156V18.6645C45.0671 18.3355 44.8006 18.0687 44.4713 18.0687H42.0694C41.7404 18.0687 41.4736 18.3355 41.4736 18.6645V28.1963C41.4736 28.5255 41.7404 28.792 42.0694 28.792H44.4713C44.8006 28.792 45.0671 28.5255 45.0671 28.1963V26.9454C46.0154 26.7487 46.8094 26.1049 47.1974 25.2176H55.2134V25.8134C55.2134 26.8004 56.0134 27.6007 57.0005 27.6007C57.9875 27.6007 58.7878 26.8004 58.7878 25.8134V19.2138C59.3293 18.9453 59.7476 18.4795 59.9561 17.912L60.3671 16.7932L65.4004 18.64C65.4662 18.6643 65.5354 18.6765 65.6054 18.6765C65.8552 18.6765 66.0787 18.5208 66.1649 18.2862L66.3882 17.678C68.3268 18.0427 70.1939 16.7669 70.5584 14.8286C70.6932 14.1123 70.6057 13.372 70.3077 12.7069L73.9191 10.8526C74.2119 10.7026 74.3276 10.3436 74.1776 10.0508C74.1096 9.91779 73.9941 9.81529 73.8541 9.76354L73.8511 9.76529ZM56.4047 19.1458L56.898 19.3245C57.1225 19.405 57.358 19.4513 57.5962 19.4615V21.6432H56.4047V19.1458ZM43.8758 27.6007H42.6652V19.2603H43.8758V27.6007ZM46.2586 24.0263C46.2576 24.7833 45.7806 25.4581 45.0671 25.7116V21.1494C45.7806 21.4027 46.2576 22.0774 46.2586 22.8347V24.0263ZM47.4687 22.8347H57.5962V24.0263H47.4687V22.8347ZM57.0005 26.4092C56.6714 26.4092 56.4047 26.1424 56.4047 25.8134V25.2176H57.5962V25.8134C57.5962 26.1424 57.3295 26.4092 57.0005 26.4092ZM59.2488 16.3829L58.8378 17.5017C58.6108 18.1187 57.9265 18.4352 57.309 18.2087L56.1884 17.7982C55.5709 17.5714 55.2539 16.8869 55.4806 16.2691C55.4806 16.2691 55.4806 16.2691 55.4806 16.2689L55.8919 15.1508L58.9116 16.2594L59.2488 16.3829ZM65.2521 17.3182L50.1523 11.7734L50.5636 10.6546L59.5111 13.9403C59.7229 14.0173 59.9604 13.969 60.1251 13.815L61.797 12.2412L66.4842 13.9628L65.2521 17.3182ZM69.2801 14.9898C68.9026 16.0076 67.8873 16.6437 66.807 16.5389L67.7275 14.0313L69.2311 13.257C69.4664 13.8075 69.4839 14.427 69.2801 14.9898ZM67.2693 12.93C67.2377 12.9327 67.2065 12.9382 67.1757 12.9465L61.8642 10.9961C61.6525 10.9183 61.4149 10.9666 61.2504 11.1211L59.5766 12.6952L47.6187 8.30396L49.8773 2.15413L72.1675 10.4123L67.2693 12.93Z" fill="#E3B873"/>
<path d="M53.1292 8.70312L52.6038 10.1231M55.419 9.54316L54.8935 10.9631M57.641 10.3696L57.1155 11.7896" stroke="#E3B873" stroke-linecap="round"/>
</svg>
