<svg width="728" height="448" viewBox="0 0 728 448" fill="none" xmlns="http://www.w3.org/2000/svg">
<path d="M256.128 318.375H199.13V451.674H256.128V318.375Z" fill="#333333"/>
<path d="M225.038 311.649H199.13V319.237H225.038V311.649Z" fill="#333333"/>
<path d="M214.157 307.338H199.13V311.649H214.157V307.338Z" fill="#333333"/>
<path opacity="0.06" d="M232.293 327.687H222.966V334.584H232.293V327.687Z" fill="white"/>
<path opacity="0.12" d="M232.293 344.759H222.966V351.656H232.293V344.759Z" fill="white"/>
<path opacity="0.19" d="M232.293 378.903H222.966V385.8H232.293V378.903Z" fill="white"/>
<path opacity="0.14" d="M232.293 413.047H222.966V419.944H232.293V413.047Z" fill="white"/>
<path opacity="0.1" d="M232.293 430.119H222.966V437.016H232.293V430.119Z" fill="white"/>
<path d="M113.116 332.859H35.0461V404.251H113.116V332.859Z" fill="#333333"/>
<path d="M100.853 326.479H47.482V357.174H100.853V326.479Z" fill="#333333"/>
<path d="M118.815 377.867H40.7458V449.259H118.815V377.867Z" fill="#333333"/>
<path d="M106.38 371.487H53.009V402.182H106.38V371.487Z" fill="#333333"/>
<path d="M222.793 368.383H144.724V450.639H222.793V368.383Z" fill="#333333"/>
<path d="M210.53 361.14H157.159V396.664H210.53V361.14Z" fill="#333333"/>
<path d="M484.119 393.388H406.049V472.885H484.119V393.388Z" fill="#333333"/>
<path d="M471.856 386.318H418.485V420.634H471.856V386.318Z" fill="#333333"/>
<path d="M314.853 229.221H227.629V450.467H314.853V229.221Z" fill="#333333"/>
<path opacity="0.46" d="M253.019 239.223H231.947V243.189H253.019V239.223Z" fill="#E6E6E6"/>
<path opacity="0.34" d="M281.863 239.223H260.792V243.189H281.863V239.223Z" fill="#E6E6E6"/>
<path opacity="0.52" d="M310.535 239.223H289.463V243.189H310.535V239.223Z" fill="#E6E6E6"/>
<path opacity="0.54" d="M253.019 248.362H231.947V252.328H253.019V248.362Z" fill="#E6E6E6"/>
<path opacity="0.3" d="M281.863 248.362H260.792V252.328H281.863V248.362Z" fill="#E6E6E6"/>
<path opacity="0.06" d="M310.535 248.362H289.463V252.328H310.535V248.362Z" fill="#E6E6E6"/>
<path opacity="0.15" d="M253.019 257.502H231.947V261.468H253.019V257.502Z" fill="#E6E6E6"/>
<path opacity="0.42" d="M281.863 257.502H260.792V261.468H281.863V257.502Z" fill="#E6E6E6"/>
<path opacity="0.48" d="M310.535 257.502H289.463V261.468H310.535V257.502Z" fill="#E6E6E6"/>
<path opacity="0.18" d="M253.019 266.641H231.947V270.607H253.019V266.641Z" fill="#E6E6E6"/>
<path opacity="0.28" d="M310.535 266.641H289.463V270.607H310.535V266.641Z" fill="#E6E6E6"/>
<path opacity="0.29" d="M253.019 275.781H231.947V279.747H253.019V275.781Z" fill="#E6E6E6"/>
<path opacity="0.28" d="M281.863 275.781H260.792V279.747H281.863V275.781Z" fill="#E6E6E6"/>
<path opacity="0.56" d="M310.535 275.781H289.463V279.747H310.535V275.781Z" fill="#E6E6E6"/>
<path opacity="0.41" d="M253.019 284.92H231.947V288.887H253.019V284.92Z" fill="#E6E6E6"/>
<path opacity="0.16" d="M281.863 284.92H260.792V288.887H281.863V284.92Z" fill="#E6E6E6"/>
<path opacity="0.4" d="M310.535 284.92H289.463V288.887H310.535V284.92Z" fill="#E6E6E6"/>
<path opacity="0.1" d="M253.019 294.06H231.947V298.026H253.019V294.06Z" fill="#E6E6E6"/>
<path opacity="0.17" d="M281.863 294.06H260.792V298.026H281.863V294.06Z" fill="#E6E6E6"/>
<path opacity="0.08" d="M310.535 294.06H289.463V298.026H310.535V294.06Z" fill="#E6E6E6"/>
<path opacity="0.49" d="M253.019 303.199H231.947V307.166H253.019V303.199Z" fill="#E6E6E6"/>
<path opacity="0.58" d="M281.863 303.199H260.792V307.166H281.863V303.199Z" fill="#E6E6E6"/>
<path opacity="0.58" d="M310.535 303.199H289.463V307.166H310.535V303.199Z" fill="#E6E6E6"/>
<path opacity="0.26" d="M253.019 312.339H231.947V316.305H253.019V312.339Z" fill="#E6E6E6"/>
<path opacity="0.37" d="M281.863 312.339H260.792V316.305H281.863V312.339Z" fill="#E6E6E6"/>
<path opacity="0.34" d="M310.535 312.339H289.463V316.305H310.535V312.339Z" fill="#E6E6E6"/>
<path opacity="0.55" d="M253.019 321.479H231.947V325.445H253.019V321.479Z" fill="#E6E6E6"/>
<path opacity="0.12" d="M281.863 321.479H260.792V325.445H281.863V321.479Z" fill="#E6E6E6"/>
<path opacity="0.6" d="M310.535 321.479H289.463V325.445H310.535V321.479Z" fill="#E6E6E6"/>
<path opacity="0.02" d="M253.019 330.618H231.947V334.584H253.019V330.618Z" fill="#E6E6E6"/>
<path opacity="0.28" d="M281.863 330.618H260.792V334.584H281.863V330.618Z" fill="#E6E6E6"/>
<path opacity="0.21" d="M310.535 330.618H289.463V334.584H310.535V330.618Z" fill="#E6E6E6"/>
<path opacity="0.57" d="M253.019 339.758H231.947V343.724H253.019V339.758Z" fill="#E6E6E6"/>
<path opacity="0.38" d="M281.863 339.758H260.792V343.724H281.863V339.758Z" fill="#E6E6E6"/>
<path opacity="0.25" d="M310.535 339.758H289.463V343.724H310.535V339.758Z" fill="#E6E6E6"/>
<path opacity="0.15" d="M253.019 348.897H231.947V352.863H253.019V348.897Z" fill="#E6E6E6"/>
<path opacity="0.47" d="M281.863 348.897H260.792V352.863H281.863V348.897Z" fill="#E6E6E6"/>
<path opacity="0.3" d="M310.535 348.897H289.463V352.863H310.535V348.897Z" fill="#E6E6E6"/>
<path opacity="0.4" d="M253.019 358.037H231.947V362.003H253.019V358.037Z" fill="#E6E6E6"/>
<path opacity="0.39" d="M281.863 358.037H260.792V362.003H281.863V358.037Z" fill="#E6E6E6"/>
<path opacity="0.24" d="M310.535 358.037H289.463V362.003H310.535V358.037Z" fill="#E6E6E6"/>
<path opacity="0.46" d="M253.019 367.176H231.947V371.142H253.019V367.176Z" fill="#E6E6E6"/>
<path opacity="0.22" d="M281.863 367.176H260.792V371.142H281.863V367.176Z" fill="#E6E6E6"/>
<path opacity="0.11" d="M310.535 367.176H289.463V371.142H310.535V367.176Z" fill="#E6E6E6"/>
<path opacity="0.11" d="M281.863 376.316H260.792V380.282H281.863V376.316Z" fill="#E6E6E6"/>
<path opacity="0.02" d="M310.535 376.316H289.463V380.282H310.535V376.316Z" fill="#E6E6E6"/>
<path opacity="0.27" d="M253.019 385.456H231.947V389.422H253.019V385.456Z" fill="#E6E6E6"/>
<path opacity="0.21" d="M281.863 385.456H260.792V389.422H281.863V385.456Z" fill="#E6E6E6"/>
<path opacity="0.49" d="M310.535 385.456H289.463V389.422H310.535V385.456Z" fill="#E6E6E6"/>
<path opacity="0.6" d="M253.019 394.595H231.947V398.561H253.019V394.595Z" fill="#E6E6E6"/>
<path opacity="0.31" d="M281.863 394.595H260.792V398.561H281.863V394.595Z" fill="#E6E6E6"/>
<path opacity="0.22" d="M310.535 394.595H289.463V398.561H310.535V394.595Z" fill="#E6E6E6"/>
<path opacity="0.54" d="M253.019 403.734H231.947V407.701H253.019V403.734Z" fill="#E6E6E6"/>
<path opacity="0.6" d="M281.863 403.734H260.792V407.701H281.863V403.734Z" fill="#E6E6E6"/>
<path opacity="0.08" d="M310.535 403.734H289.463V407.701H310.535V403.734Z" fill="#E6E6E6"/>
<path opacity="0.55" d="M281.863 412.874H260.792V416.84H281.863V412.874Z" fill="#E6E6E6"/>
<path d="M310.535 412.874H289.463V416.84H310.535V412.874Z" fill="#E6E6E6"/>
<path opacity="0.6" d="M254.401 239.223H253.019V416.84H254.401V239.223Z" fill="#E6E6E6"/>
<path opacity="0.6" d="M289.463 239.223H288.081V416.84H289.463V239.223Z" fill="#E6E6E6"/>
<path d="M358.378 229.221H314.853V450.467H358.378V229.221Z" fill="#4D4D4D"/>
<path opacity="0.69" d="M351.988 239.223H319.171V243.189H351.988V239.223Z" fill="#E6E6E6"/>
<path opacity="0.79" d="M351.988 248.362H319.171V252.328H351.988V248.362Z" fill="#E6E6E6"/>
<path opacity="0.19" d="M351.988 257.502H319.171V261.468H351.988V257.502Z" fill="#E6E6E6"/>
<path opacity="0.88" d="M351.988 266.641H319.171V270.607H351.988V266.641Z" fill="#E6E6E6"/>
<path opacity="0.5" d="M351.988 275.781H319.171V279.747H351.988V275.781Z" fill="#E6E6E6"/>
<path opacity="0.25" d="M351.988 284.92H319.171V288.887H351.988V284.92Z" fill="#E6E6E6"/>
<path opacity="0.91" d="M351.988 294.06H319.171V298.026H351.988V294.06Z" fill="#E6E6E6"/>
<path opacity="0.02" d="M351.988 303.199H319.171V307.166H351.988V303.199Z" fill="#E6E6E6"/>
<path opacity="0.53" d="M351.988 312.339H319.171V316.305H351.988V312.339Z" fill="#E6E6E6"/>
<path opacity="0.65" d="M351.988 321.479H319.171V325.445H351.988V321.479Z" fill="#E6E6E6"/>
<path d="M351.988 330.618H319.171V334.584H351.988V330.618Z" fill="#E6E6E6"/>
<path opacity="0.8" d="M351.988 339.758H319.171V343.724H351.988V339.758Z" fill="#E6E6E6"/>
<path opacity="0.82" d="M351.988 348.897H319.171V352.863H351.988V348.897Z" fill="#E6E6E6"/>
<path opacity="0.75" d="M351.988 358.037H319.171V362.003H351.988V358.037Z" fill="#E6E6E6"/>
<path opacity="0.31" d="M351.988 367.176H319.171V371.142H351.988V367.176Z" fill="#E6E6E6"/>
<path opacity="0.22" d="M351.988 376.316H319.171V380.282H351.988V376.316Z" fill="#E6E6E6"/>
<path opacity="0.43" d="M351.988 385.456H319.171V389.422H351.988V385.456Z" fill="#E6E6E6"/>
<path opacity="0.68" d="M351.988 394.595H319.171V398.561H351.988V394.595Z" fill="#E6E6E6"/>
<path opacity="0.38" d="M351.988 403.734H319.171V407.701H351.988V403.734Z" fill="#E6E6E6"/>
<path opacity="0.84" d="M351.988 412.874H319.171V416.84H351.988V412.874Z" fill="#E6E6E6"/>
<path d="M243.001 217.494V229.221H299.481V217.494H243.001ZM255.61 225.427H249.737V221.461H255.61V225.427ZM264.764 225.427H259.064V221.461H264.764V225.427ZM274.091 225.427H268.391V221.461H274.091V225.427ZM283.418 225.427H277.545V221.461H283.418V225.427ZM292.745 225.427H286.872V221.461H292.745V225.427Z" fill="#333333"/>
<path d="M309.844 221.461H308.29V225.427H309.844V221.461Z" fill="#333333"/>
<path d="M299.481 217.494V229.221H326.08V217.494H299.481ZM309.844 225.427H304.144V221.461H309.844V225.427ZM322.107 225.427H316.408V221.461H322.107V225.427Z" fill="#4D4D4D"/>
<path d="M321.935 221.461H320.38V225.427H321.935V221.461Z" fill="#333333"/>
<path d="M326.425 465.469H208.976L326.425 378.902V465.469Z" fill="#333333"/>
<path d="M151.287 182.316H141.787V218.357H151.287V182.316Z" fill="#4D4D4D"/>
<path d="M141.96 182.316H132.288V218.357H141.96V182.316Z" fill="#333333"/>
<path d="M161.132 182.316H151.46V218.357H161.132V182.316Z" fill="#666666"/>
<path d="M189.113 243.016H162.168V448.57H189.113V243.016Z" fill="#666666"/>
<path d="M130.561 243.016H107.071V448.57H130.561V243.016Z" fill="#333333"/>
<path d="M162.168 243.016H130.388V448.57H162.168V243.016Z" fill="#4D4D4D"/>
<path opacity="0.6" d="M113.807 249.052H110.352V445.811H113.807V249.052Z" fill="#E6E6E6"/>
<path opacity="0.6" d="M120.543 249.052H117.088V445.811H120.543V249.052Z" fill="#E6E6E6"/>
<path opacity="0.6" d="M127.279 249.052H123.825V445.811H127.279V249.052Z" fill="#E6E6E6"/>
<path d="M167.523 249.052H164.068V445.811H167.523V249.052Z" fill="#E6E6E6"/>
<path d="M174.259 249.052H170.804V445.811H174.259V249.052Z" fill="#E6E6E6"/>
<path d="M187.385 249.052H183.931V445.811H187.385V249.052Z" fill="#E6E6E6"/>
<path d="M180.995 249.052H177.54V445.811H180.995V249.052Z" fill="#E6E6E6"/>
<path opacity="0.8" d="M134.36 445.811H158.196V249.052H134.36V445.811ZM138.16 252.5H154.396V442.362H138.16V252.5Z" fill="#E6E6E6"/>
<path opacity="0.8" d="M141.269 439.085H151.46V255.604H141.269V439.085ZM144.724 259.915H145.933H146.624H148.005V434.774H146.624H145.933H144.724V259.915Z" fill="#E6E6E6"/>
<path opacity="0.8" d="M146.624 259.916H145.933V434.774H146.624V259.916Z" fill="#E6E6E6"/>
<path d="M158.541 206.975H134.706V243.016H158.541V206.975Z" fill="#4D4D4D"/>
<path d="M158.541 206.975H134.706V243.016H158.541V206.975Z" fill="#4D4D4D"/>
<path d="M182.377 206.975H158.541V243.016H182.377V206.975Z" fill="#666666"/>
<path d="M134.706 206.975H110.87V243.016H134.706V206.975Z" fill="#333333"/>
<path d="M160.959 182.316H132.288L141.787 188.869H151.46L160.959 182.316Z" fill="#808080"/>
<path d="M673.42 169.037H659.603V209.562H673.42V169.037Z" fill="#4D4D4D"/>
<path d="M659.43 169.037H645.612V209.562H659.43V169.037Z" fill="#333333"/>
<path d="M687.238 169.037H673.42V209.562H687.238V169.037Z" fill="#666666"/>
<path d="M728 237.498H688.965V469.091H728V237.498Z" fill="#666666"/>
<path d="M643.021 237.498H609.168V469.091H643.021V237.498Z" fill="#333333"/>
<path d="M688.965 237.498H643.022V469.091H688.965V237.498Z" fill="#4D4D4D"/>
<path opacity="0.4" d="M618.841 244.396H613.832V465.987H618.841V244.396Z" fill="#E6E6E6"/>
<path opacity="0.4" d="M628.686 244.396H623.677V465.987H628.686V244.396Z" fill="#E6E6E6"/>
<path opacity="0.4" d="M638.531 244.396H633.522V465.987H638.531V244.396Z" fill="#E6E6E6"/>
<path d="M696.738 244.396H691.729V465.987H696.738V244.396Z" fill="#E6E6E6"/>
<path d="M706.583 244.396H701.574V465.987H706.583V244.396Z" fill="#E6E6E6"/>
<path d="M725.409 244.396H720.4V465.987H725.409V244.396Z" fill="#E6E6E6"/>
<path d="M716.255 244.396H711.246V465.987H716.255V244.396Z" fill="#E6E6E6"/>
<path d="M648.894 465.987H683.438V244.396H648.894V465.987ZM654.248 248.189H677.738V462.193H654.248V248.189Z" fill="#E6E6E6"/>
<path d="M658.566 458.572H673.42V251.811H658.566V458.572ZM663.748 256.639H665.648H666.512H668.411V453.743H666.512H665.648H663.748V256.639Z" fill="#E6E6E6"/>
<path d="M666.512 256.639H665.648V453.743H666.512V256.639Z" fill="#E6E6E6"/>
<path d="M683.784 196.973H649.24V237.498H683.784V196.973Z" fill="#4D4D4D"/>
<path d="M683.784 196.973H649.24V237.498H683.784V196.973Z" fill="#4D4D4D"/>
<path d="M718.328 196.973H683.784V237.498H718.328V196.973Z" fill="#666666"/>
<path d="M649.412 196.973H614.868V237.498H649.412V196.973Z" fill="#333333"/>
<path d="M687.411 169.037H645.612L659.603 176.453H673.42L687.411 169.037Z" fill="#808080"/>
<path d="M573.761 269.572H479.283V300.957H573.761V269.572Z" fill="#E6E6E6"/>
<path d="M516.418 269.572H479.283V300.957H516.418V269.572Z" fill="#B3B3B3"/>
<path d="M516.418 301.129H443.011V453.57H516.418V301.129Z" fill="#333333"/>
<path d="M631.104 301.129H516.418V453.57H631.104V301.129Z" fill="#4D4D4D"/>
<path d="M507.436 285.609H450.957V301.129H507.436V285.609Z" fill="#333333"/>
<path d="M614.005 285.609H533.344V301.129H614.005V285.609Z" fill="#4D4D4D"/>
<path d="M548.716 257.673H516.418V269.572H548.716V257.673Z" fill="#E6E6E6"/>
<path d="M532.481 245.602H516.418V257.501H532.481V245.602Z" fill="#4D4D4D"/>
<path d="M516.245 245.602H500.182V257.501H516.245V245.602Z" fill="#333333"/>
<path d="M516.418 257.673H491.719V269.572H516.418V257.673Z" fill="#B3B3B3"/>
<path d="M515.381 245.602L516.418 218.011L517.281 245.602H515.381Z" fill="#333333"/>
<path opacity="0.12" d="M466.156 307.337H460.111V313.373H466.156V307.337Z" fill="white"/>
<path opacity="0.25" d="M474.447 307.337H468.401V313.373H474.447V307.337Z" fill="white"/>
<path opacity="0.36" d="M482.737 307.337H476.692V313.373H482.737V307.337Z" fill="white"/>
<path opacity="0.12" d="M491.028 307.337H484.982V313.373H491.028V307.337Z" fill="white"/>
<path opacity="0.14" d="M499.318 307.337H493.273V313.373H499.318V307.337Z" fill="white"/>
<path opacity="0.28" d="M466.156 315.269H460.111V321.305H466.156V315.269Z" fill="white"/>
<path opacity="0.4" d="M474.447 315.269H468.401V321.305H474.447V315.269Z" fill="white"/>
<path opacity="0.16" d="M482.737 315.269H476.692V321.305H482.737V315.269Z" fill="white"/>
<path opacity="0.17" d="M499.318 315.269H493.273V321.305H499.318V315.269Z" fill="white"/>
<path opacity="0.27" d="M466.156 323.202H460.111V329.237H466.156V323.202Z" fill="white"/>
<path opacity="0.45" d="M474.447 323.202H468.401V329.237H474.447V323.202Z" fill="white"/>
<path opacity="0.45" d="M482.737 323.202H476.692V329.237H482.737V323.202Z" fill="white"/>
<path opacity="0.48" d="M491.028 323.202H484.982V329.237H491.028V323.202Z" fill="white"/>
<path opacity="0.25" d="M499.318 323.202H493.273V329.237H499.318V323.202Z" fill="white"/>
<path opacity="0.28" d="M466.156 331.134H460.111V337.17H466.156V331.134Z" fill="white"/>
<path opacity="0.13" d="M474.447 331.134H468.401V337.17H474.447V331.134Z" fill="white"/>
<path opacity="0.07" d="M482.737 331.134H476.692V337.17H482.737V331.134Z" fill="white"/>
<path opacity="0.39" d="M491.028 331.134H484.982V337.17H491.028V331.134Z" fill="white"/>
<path opacity="0.47" d="M499.318 331.134H493.273V337.17H499.318V331.134Z" fill="white"/>
<path opacity="0.28" d="M466.156 339.067H460.111V345.102H466.156V339.067Z" fill="white"/>
<path opacity="0.2" d="M474.447 339.067H468.401V345.102H474.447V339.067Z" fill="white"/>
<path opacity="0.04" d="M482.737 339.067H476.692V345.102H482.737V339.067Z" fill="white"/>
<path opacity="0.43" d="M491.028 339.067H484.982V345.102H491.028V339.067Z" fill="white"/>
<path opacity="0.48" d="M499.318 339.067H493.273V345.102H499.318V339.067Z" fill="white"/>
<path opacity="0.28" d="M466.156 346.999H460.111V353.035H466.156V346.999Z" fill="white"/>
<path opacity="0.19" d="M474.447 346.999H468.401V353.035H474.447V346.999Z" fill="white"/>
<path opacity="0.01" d="M482.737 346.999H476.692V353.035H482.737V346.999Z" fill="white"/>
<path opacity="0.27" d="M491.028 346.999H484.982V353.035H491.028V346.999Z" fill="white"/>
<path opacity="0.24" d="M499.318 346.999H493.273V353.035H499.318V346.999Z" fill="white"/>
<path opacity="0.07" d="M466.156 355.104H460.111V361.14H466.156V355.104Z" fill="white"/>
<path opacity="0.25" d="M474.447 355.104H468.401V361.14H474.447V355.104Z" fill="white"/>
<path opacity="0.26" d="M482.737 355.104H476.692V361.14H482.737V355.104Z" fill="white"/>
<path opacity="0.39" d="M491.028 355.104H484.982V361.14H491.028V355.104Z" fill="white"/>
<path opacity="0.22" d="M499.318 355.104H493.273V361.14H499.318V355.104Z" fill="white"/>
<path opacity="0.15" d="M466.156 363.036H460.111V369.072H466.156V363.036Z" fill="white"/>
<path opacity="0.23" d="M474.447 363.036H468.401V369.072H474.447V363.036Z" fill="white"/>
<path opacity="0.05" d="M482.737 363.036H476.692V369.072H482.737V363.036Z" fill="white"/>
<path opacity="0.2" d="M491.028 363.036H484.982V369.072H491.028V363.036Z" fill="white"/>
<path opacity="0.31" d="M499.318 363.036H493.273V369.072H499.318V363.036Z" fill="white"/>
<path opacity="0.15" d="M466.156 370.969H460.111V377.004H466.156V370.969Z" fill="white"/>
<path opacity="0.33" d="M474.447 370.969H468.401V377.004H474.447V370.969Z" fill="white"/>
<path opacity="0.46" d="M482.737 370.969H476.692V377.004H482.737V370.969Z" fill="white"/>
<path opacity="0.25" d="M491.028 370.969H484.982V377.004H491.028V370.969Z" fill="white"/>
<path opacity="0.43" d="M499.318 370.969H493.273V377.004H499.318V370.969Z" fill="white"/>
<path opacity="0.4" d="M466.156 378.901H460.111V384.937H466.156V378.901Z" fill="white"/>
<path opacity="0.39" d="M474.447 378.901H468.401V384.937H474.447V378.901Z" fill="white"/>
<path opacity="0.01" d="M482.737 378.901H476.692V384.937H482.737V378.901Z" fill="white"/>
<path opacity="0.12" d="M491.028 378.901H484.982V384.937H491.028V378.901Z" fill="white"/>
<path opacity="0.07" d="M499.318 378.901H493.273V384.937H499.318V378.901Z" fill="white"/>
<path opacity="0.07" d="M466.156 386.834H460.111V392.87H466.156V386.834Z" fill="white"/>
<path opacity="0.02" d="M474.447 386.834H468.401V392.87H474.447V386.834Z" fill="white"/>
<path opacity="0.12" d="M482.737 386.834H476.692V392.87H482.737V386.834Z" fill="white"/>
<path opacity="0.23" d="M491.028 386.834H484.982V392.87H491.028V386.834Z" fill="white"/>
<path opacity="0.26" d="M499.318 386.834H493.273V392.87H499.318V386.834Z" fill="white"/>
<path opacity="0.27" d="M466.156 394.766H460.111V400.802H466.156V394.766Z" fill="white"/>
<path opacity="0.38" d="M474.447 394.766H468.401V400.802H474.447V394.766Z" fill="white"/>
<path opacity="0.05" d="M482.737 394.766H476.692V400.802H482.737V394.766Z" fill="white"/>
<path opacity="0.45" d="M491.028 394.766H484.982V400.802H491.028V394.766Z" fill="white"/>
<path opacity="0.15" d="M499.318 394.766H493.273V400.802H499.318V394.766Z" fill="white"/>
<path opacity="0.06" d="M466.156 402.699H460.111V408.734H466.156V402.699Z" fill="white"/>
<path opacity="0.47" d="M474.447 402.699H468.401V408.734H474.447V402.699Z" fill="white"/>
<path opacity="0.15" d="M482.737 402.699H476.692V408.734H482.737V402.699Z" fill="white"/>
<path opacity="0.44" d="M491.028 402.699H484.982V408.734H491.028V402.699Z" fill="white"/>
<path opacity="0.14" d="M499.318 402.699H493.273V408.734H499.318V402.699Z" fill="white"/>
<path opacity="0.15" d="M466.156 410.631H460.111V416.667H466.156V410.631Z" fill="white"/>
<path opacity="0.43" d="M474.447 410.631H468.401V416.667H474.447V410.631Z" fill="white"/>
<path opacity="0.07" d="M482.737 410.631H476.692V416.667H482.737V410.631Z" fill="white"/>
<path opacity="0.47" d="M491.028 410.631H484.982V416.667H491.028V410.631Z" fill="white"/>
<path opacity="0.11" d="M499.318 410.631H493.273V416.667H499.318V410.631Z" fill="white"/>
<path opacity="0.07" d="M466.156 418.564H460.111V424.599H466.156V418.564Z" fill="white"/>
<path opacity="0.34" d="M474.447 418.564H468.401V424.599H474.447V418.564Z" fill="white"/>
<path opacity="0.5" d="M482.737 418.564H476.692V424.599H482.737V418.564Z" fill="white"/>
<path opacity="0.36" d="M491.028 418.564H484.982V424.599H491.028V418.564Z" fill="white"/>
<path opacity="0.34" d="M499.318 418.564H493.273V424.599H499.318V418.564Z" fill="white"/>
<path opacity="0.47" d="M466.156 426.496H460.111V432.532H466.156V426.496Z" fill="white"/>
<path opacity="0.41" d="M474.447 426.496H468.401V432.532H474.447V426.496Z" fill="white"/>
<path opacity="0.3" d="M482.737 426.496H476.692V432.532H482.737V426.496Z" fill="white"/>
<path opacity="0.33" d="M491.028 426.496H484.982V432.532H491.028V426.496Z" fill="white"/>
<path opacity="0.12" d="M499.318 426.496H493.273V432.532H499.318V426.496Z" fill="white"/>
<path opacity="0.24" d="M466.156 434.428H460.111V440.464H466.156V434.428Z" fill="white"/>
<path opacity="0.29" d="M474.447 434.428H468.401V440.464H474.447V434.428Z" fill="white"/>
<path opacity="0.27" d="M491.028 434.428H484.982V440.464H491.028V434.428Z" fill="white"/>
<path opacity="0.04" d="M499.318 434.428H493.273V440.464H499.318V434.428Z" fill="white"/>
<path opacity="0.11" d="M466.156 442.361H460.111V448.396H466.156V442.361Z" fill="white"/>
<path opacity="0.05" d="M474.447 442.361H468.401V448.396H474.447V442.361Z" fill="white"/>
<path opacity="0.04" d="M482.737 442.361H476.692V448.396H482.737V442.361Z" fill="white"/>
<path opacity="0.02" d="M491.028 442.361H484.982V448.396H491.028V442.361Z" fill="white"/>
<path opacity="0.3" d="M536.453 307.337H530.408V313.373H536.453V307.337Z" fill="white"/>
<path opacity="0.72" d="M544.398 307.337H538.353V313.373H544.398V307.337Z" fill="white"/>
<path opacity="0.7" d="M552.516 307.337H546.471V313.373H552.516V307.337Z" fill="white"/>
<path opacity="0.52" d="M560.634 307.337H554.589V313.373H560.634V307.337Z" fill="white"/>
<path opacity="0.2" d="M568.752 307.337H562.706V313.373H568.752V307.337Z" fill="white"/>
<path opacity="0.32" d="M576.697 307.337H570.652V313.373H576.697V307.337Z" fill="white"/>
<path opacity="0.13" d="M584.815 307.337H578.77V313.373H584.815V307.337Z" fill="white"/>
<path opacity="0.38" d="M592.933 307.337H586.887V313.373H592.933V307.337Z" fill="white"/>
<path opacity="0.61" d="M600.878 307.337H594.833V313.373H600.878V307.337Z" fill="white"/>
<path d="M608.996 307.337H602.95V313.373H608.996V307.337Z" fill="white"/>
<path opacity="0.91" d="M617.113 307.337H611.068V313.373H617.113V307.337Z" fill="white"/>
<path opacity="0.66" d="M536.453 315.269H530.408V321.305H536.453V315.269Z" fill="white"/>
<path opacity="0.31" d="M544.398 315.269H538.353V321.305H544.398V315.269Z" fill="white"/>
<path opacity="0.95" d="M552.516 315.269H546.471V321.305H552.516V315.269Z" fill="white"/>
<path opacity="0.7" d="M560.634 315.269H554.589V321.305H560.634V315.269Z" fill="white"/>
<path opacity="0.12" d="M568.752 315.269H562.706V321.305H568.752V315.269Z" fill="white"/>
<path opacity="0.24" d="M576.697 315.269H570.652V321.305H576.697V315.269Z" fill="white"/>
<path opacity="0.66" d="M584.815 315.269H578.77V321.305H584.815V315.269Z" fill="white"/>
<path opacity="0.71" d="M592.933 315.269H586.887V321.305H592.933V315.269Z" fill="white"/>
<path opacity="0.42" d="M600.878 315.269H594.833V321.305H600.878V315.269Z" fill="white"/>
<path opacity="0.09" d="M608.996 315.269H602.95V321.305H608.996V315.269Z" fill="white"/>
<path opacity="0.32" d="M617.113 315.269H611.068V321.305H617.113V315.269Z" fill="white"/>
<path opacity="0.65" d="M536.453 323.202H530.408V329.237H536.453V323.202Z" fill="white"/>
<path d="M544.398 323.202H538.353V329.237H544.398V323.202Z" fill="white"/>
<path d="M552.516 323.202H546.471V329.237H552.516V323.202Z" fill="white"/>
<path opacity="0.71" d="M560.634 323.202H554.589V329.237H560.634V323.202Z" fill="white"/>
<path opacity="0.2" d="M568.752 323.202H562.706V329.237H568.752V323.202Z" fill="white"/>
<path opacity="0.19" d="M576.697 323.202H570.652V329.237H576.697V323.202Z" fill="white"/>
<path opacity="0.62" d="M584.815 323.202H578.77V329.237H584.815V323.202Z" fill="white"/>
<path opacity="0.93" d="M592.933 323.202H586.887V329.237H592.933V323.202Z" fill="white"/>
<path opacity="0.56" d="M600.878 323.202H594.833V329.237H600.878V323.202Z" fill="white"/>
<path opacity="0.57" d="M608.996 323.202H602.95V329.237H608.996V323.202Z" fill="white"/>
<path opacity="0.52" d="M617.113 323.202H611.068V329.237H617.113V323.202Z" fill="white"/>
<path opacity="0.74" d="M536.453 331.134H530.408V337.17H536.453V331.134Z" fill="white"/>
<path opacity="0.56" d="M544.398 331.134H538.353V337.17H544.398V331.134Z" fill="white"/>
<path opacity="0.78" d="M552.516 331.134H546.471V337.17H552.516V331.134Z" fill="white"/>
<path opacity="0.41" d="M560.634 331.134H554.589V337.17H560.634V331.134Z" fill="white"/>
<path opacity="0.14" d="M568.752 331.134H562.706V337.17H568.752V331.134Z" fill="white"/>
<path opacity="0.28" d="M576.697 331.134H570.652V337.17H576.697V331.134Z" fill="white"/>
<path opacity="0.36" d="M584.815 331.134H578.77V337.17H584.815V331.134Z" fill="white"/>
<path opacity="0.14" d="M592.933 331.134H586.887V337.17H592.933V331.134Z" fill="white"/>
<path opacity="0.5" d="M600.878 331.134H594.833V337.17H600.878V331.134Z" fill="white"/>
<path opacity="0.98" d="M608.996 331.134H602.95V337.17H608.996V331.134Z" fill="white"/>
<path opacity="0.59" d="M617.113 331.134H611.068V337.17H617.113V331.134Z" fill="white"/>
<path opacity="0.07" d="M536.453 339.067H530.408V345.102H536.453V339.067Z" fill="white"/>
<path opacity="0.1" d="M544.398 339.067H538.353V345.102H544.398V339.067Z" fill="white"/>
<path opacity="0.88" d="M552.516 339.067H546.471V345.102H552.516V339.067Z" fill="white"/>
<path opacity="0.68" d="M560.634 339.067H554.589V345.102H560.634V339.067Z" fill="white"/>
<path opacity="0.81" d="M568.752 339.067H562.706V345.102H568.752V339.067Z" fill="white"/>
<path opacity="0.62" d="M576.697 339.067H570.652V345.102H576.697V339.067Z" fill="white"/>
<path opacity="0.97" d="M584.815 339.067H578.77V345.102H584.815V339.067Z" fill="white"/>
<path opacity="0.81" d="M592.933 339.067H586.887V345.102H592.933V339.067Z" fill="white"/>
<path opacity="0.79" d="M600.878 339.067H594.833V345.102H600.878V339.067Z" fill="white"/>
<path opacity="0.03" d="M608.996 339.067H602.95V345.102H608.996V339.067Z" fill="white"/>
<path opacity="0.95" d="M617.113 339.067H611.068V345.102H617.113V339.067Z" fill="white"/>
<path opacity="0.62" d="M536.453 346.999H530.408V353.035H536.453V346.999Z" fill="white"/>
<path opacity="0.22" d="M544.398 346.999H538.353V353.035H544.398V346.999Z" fill="white"/>
<path opacity="0.42" d="M552.516 346.999H546.471V353.035H552.516V346.999Z" fill="white"/>
<path opacity="0.56" d="M560.634 346.999H554.589V353.035H560.634V346.999Z" fill="white"/>
<path opacity="0.03" d="M568.752 346.999H562.706V353.035H568.752V346.999Z" fill="white"/>
<path opacity="0.64" d="M576.697 346.999H570.652V353.035H576.697V346.999Z" fill="white"/>
<path opacity="0.82" d="M584.815 346.999H578.77V353.035H584.815V346.999Z" fill="white"/>
<path opacity="0.52" d="M592.933 346.999H586.887V353.035H592.933V346.999Z" fill="white"/>
<path opacity="0.46" d="M600.878 346.999H594.833V353.035H600.878V346.999Z" fill="white"/>
<path opacity="0.27" d="M608.996 346.999H602.95V353.035H608.996V346.999Z" fill="white"/>
<path opacity="0.46" d="M617.113 346.999H611.068V353.035H617.113V346.999Z" fill="white"/>
<path opacity="0.66" d="M536.453 355.104H530.408V361.14H536.453V355.104Z" fill="white"/>
<path opacity="0.7" d="M544.398 355.104H538.353V361.14H544.398V355.104Z" fill="white"/>
<path opacity="0.94" d="M552.516 355.104H546.471V361.14H552.516V355.104Z" fill="white"/>
<path opacity="0.5" d="M560.634 355.104H554.589V361.14H560.634V355.104Z" fill="white"/>
<path opacity="0.12" d="M568.752 355.104H562.706V361.14H568.752V355.104Z" fill="white"/>
<path opacity="0.36" d="M576.697 355.104H570.652V361.14H576.697V355.104Z" fill="white"/>
<path opacity="0.51" d="M584.815 355.104H578.77V361.14H584.815V355.104Z" fill="white"/>
<path opacity="0.37" d="M592.933 355.104H586.887V361.14H592.933V355.104Z" fill="white"/>
<path opacity="0.66" d="M600.878 355.104H594.833V361.14H600.878V355.104Z" fill="white"/>
<path opacity="0.42" d="M608.996 355.104H602.95V361.14H608.996V355.104Z" fill="white"/>
<path opacity="0.5" d="M617.113 355.104H611.068V361.14H617.113V355.104Z" fill="white"/>
<path opacity="0.52" d="M536.453 363.036H530.408V369.072H536.453V363.036Z" fill="white"/>
<path opacity="0.61" d="M544.398 363.036H538.353V369.072H544.398V363.036Z" fill="white"/>
<path opacity="0.84" d="M552.516 363.036H546.471V369.072H552.516V363.036Z" fill="white"/>
<path opacity="0.89" d="M560.634 363.036H554.589V369.072H560.634V363.036Z" fill="white"/>
<path opacity="0.33" d="M568.752 363.036H562.706V369.072H568.752V363.036Z" fill="white"/>
<path opacity="0.25" d="M576.697 363.036H570.652V369.072H576.697V363.036Z" fill="white"/>
<path opacity="0.95" d="M584.815 363.036H578.77V369.072H584.815V363.036Z" fill="white"/>
<path opacity="0.09" d="M592.933 363.036H586.887V369.072H592.933V363.036Z" fill="white"/>
<path opacity="0.44" d="M600.878 363.036H594.833V369.072H600.878V363.036Z" fill="white"/>
<path opacity="0.51" d="M608.996 363.036H602.95V369.072H608.996V363.036Z" fill="white"/>
<path opacity="0.97" d="M617.113 363.036H611.068V369.072H617.113V363.036Z" fill="white"/>
<path opacity="0.26" d="M536.453 370.969H530.408V377.004H536.453V370.969Z" fill="white"/>
<path opacity="0.92" d="M544.398 370.969H538.353V377.004H544.398V370.969Z" fill="white"/>
<path opacity="0.33" d="M552.516 370.969H546.471V377.004H552.516V370.969Z" fill="white"/>
<path opacity="0.23" d="M560.634 370.969H554.589V377.004H560.634V370.969Z" fill="white"/>
<path opacity="0.42" d="M568.752 370.969H562.706V377.004H568.752V370.969Z" fill="white"/>
<path opacity="0.57" d="M576.697 370.969H570.652V377.004H576.697V370.969Z" fill="white"/>
<path opacity="0.73" d="M584.815 370.969H578.77V377.004H584.815V370.969Z" fill="white"/>
<path opacity="0.87" d="M592.933 370.969H586.887V377.004H592.933V370.969Z" fill="white"/>
<path opacity="0.22" d="M600.878 370.969H594.833V377.004H600.878V370.969Z" fill="white"/>
<path opacity="0.89" d="M608.996 370.969H602.95V377.004H608.996V370.969Z" fill="white"/>
<path opacity="0.73" d="M617.113 370.969H611.068V377.004H617.113V370.969Z" fill="white"/>
<path opacity="0.35" d="M536.453 378.901H530.408V384.937H536.453V378.901Z" fill="white"/>
<path opacity="0.81" d="M544.398 378.901H538.353V384.937H544.398V378.901Z" fill="white"/>
<path opacity="0.56" d="M552.516 378.901H546.471V384.937H552.516V378.901Z" fill="white"/>
<path opacity="0.81" d="M560.634 378.901H554.589V384.937H560.634V378.901Z" fill="white"/>
<path opacity="0.87" d="M568.752 378.901H562.706V384.937H568.752V378.901Z" fill="white"/>
<path opacity="0.39" d="M576.697 378.901H570.652V384.937H576.697V378.901Z" fill="white"/>
<path opacity="0.31" d="M584.815 378.901H578.77V384.937H584.815V378.901Z" fill="white"/>
<path opacity="0.98" d="M592.933 378.901H586.887V384.937H592.933V378.901Z" fill="white"/>
<path opacity="0.17" d="M600.878 378.901H594.833V384.937H600.878V378.901Z" fill="white"/>
<path opacity="0.06" d="M608.996 378.901H602.95V384.937H608.996V378.901Z" fill="white"/>
<path opacity="0.57" d="M617.113 378.901H611.068V384.937H617.113V378.901Z" fill="white"/>
<path opacity="0.67" d="M536.453 386.834H530.408V392.87H536.453V386.834Z" fill="white"/>
<path opacity="0.83" d="M544.398 386.834H538.353V392.87H544.398V386.834Z" fill="white"/>
<path opacity="0.99" d="M552.516 386.834H546.471V392.87H552.516V386.834Z" fill="white"/>
<path opacity="0.62" d="M560.634 386.834H554.589V392.87H560.634V386.834Z" fill="white"/>
<path opacity="0.87" d="M568.752 386.834H562.706V392.87H568.752V386.834Z" fill="white"/>
<path opacity="0.14" d="M576.697 386.834H570.652V392.87H576.697V386.834Z" fill="white"/>
<path opacity="0.12" d="M584.815 386.834H578.77V392.87H584.815V386.834Z" fill="white"/>
<path opacity="0.11" d="M592.933 386.834H586.887V392.87H592.933V386.834Z" fill="white"/>
<path opacity="0.39" d="M600.878 386.834H594.833V392.87H600.878V386.834Z" fill="white"/>
<path opacity="0.58" d="M608.996 386.834H602.95V392.87H608.996V386.834Z" fill="white"/>
<path opacity="0.54" d="M617.113 386.834H611.068V392.87H617.113V386.834Z" fill="white"/>
<path opacity="0.99" d="M536.453 394.766H530.408V400.802H536.453V394.766Z" fill="white"/>
<path opacity="0.28" d="M544.398 394.766H538.353V400.802H544.398V394.766Z" fill="white"/>
<path opacity="0.78" d="M552.516 394.766H546.471V400.802H552.516V394.766Z" fill="white"/>
<path opacity="0.65" d="M560.634 394.766H554.589V400.802H560.634V394.766Z" fill="white"/>
<path opacity="0.32" d="M568.752 394.766H562.706V400.802H568.752V394.766Z" fill="white"/>
<path opacity="0.55" d="M576.697 394.766H570.652V400.802H576.697V394.766Z" fill="white"/>
<path opacity="0.4" d="M584.815 394.766H578.77V400.802H584.815V394.766Z" fill="white"/>
<path opacity="0.22" d="M592.933 394.766H586.887V400.802H592.933V394.766Z" fill="white"/>
<path opacity="0.87" d="M600.878 394.766H594.833V400.802H600.878V394.766Z" fill="white"/>
<path opacity="0.02" d="M608.996 394.766H602.95V400.802H608.996V394.766Z" fill="white"/>
<path opacity="0.39" d="M617.113 394.766H611.068V400.802H617.113V394.766Z" fill="white"/>
<path opacity="0.89" d="M536.453 402.699H530.408V408.734H536.453V402.699Z" fill="white"/>
<path opacity="0.97" d="M544.398 402.699H538.353V408.734H544.398V402.699Z" fill="white"/>
<path opacity="0.79" d="M552.516 402.699H546.471V408.734H552.516V402.699Z" fill="white"/>
<path opacity="0.41" d="M560.634 402.699H554.589V408.734H560.634V402.699Z" fill="white"/>
<path opacity="0.13" d="M568.752 402.699H562.706V408.734H568.752V402.699Z" fill="white"/>
<path opacity="0.9" d="M576.697 402.699H570.652V408.734H576.697V402.699Z" fill="white"/>
<path opacity="0.98" d="M584.815 402.699H578.77V408.734H584.815V402.699Z" fill="white"/>
<path opacity="0.67" d="M592.933 402.699H586.887V408.734H592.933V402.699Z" fill="white"/>
<path opacity="0.65" d="M600.878 402.699H594.833V408.734H600.878V402.699Z" fill="white"/>
<path opacity="0.89" d="M608.996 402.699H602.95V408.734H608.996V402.699Z" fill="white"/>
<path opacity="0.98" d="M617.113 402.699H611.068V408.734H617.113V402.699Z" fill="white"/>
<path opacity="0.29" d="M536.453 410.631H530.408V416.667H536.453V410.631Z" fill="white"/>
<path opacity="0.74" d="M544.398 410.631H538.353V416.667H544.398V410.631Z" fill="white"/>
<path opacity="0.64" d="M552.516 410.631H546.471V416.667H552.516V410.631Z" fill="white"/>
<path opacity="0.65" d="M560.634 410.631H554.589V416.667H560.634V410.631Z" fill="white"/>
<path opacity="0.07" d="M568.752 410.631H562.706V416.667H568.752V410.631Z" fill="white"/>
<path opacity="0.16" d="M576.697 410.631H570.652V416.667H576.697V410.631Z" fill="white"/>
<path opacity="0.84" d="M584.815 410.631H578.77V416.667H584.815V410.631Z" fill="white"/>
<path opacity="0.88" d="M592.933 410.631H586.887V416.667H592.933V410.631Z" fill="white"/>
<path opacity="0.57" d="M600.878 410.631H594.833V416.667H600.878V410.631Z" fill="white"/>
<path opacity="0.31" d="M608.996 410.631H602.95V416.667H608.996V410.631Z" fill="white"/>
<path opacity="0.03" d="M617.113 410.631H611.068V416.667H617.113V410.631Z" fill="white"/>
<path opacity="0.3" d="M536.453 418.564H530.408V424.599H536.453V418.564Z" fill="white"/>
<path opacity="0.59" d="M544.398 418.564H538.353V424.599H544.398V418.564Z" fill="white"/>
<path opacity="0.93" d="M552.516 418.564H546.471V424.599H552.516V418.564Z" fill="white"/>
<path opacity="0.06" d="M560.634 418.564H554.589V424.599H560.634V418.564Z" fill="white"/>
<path opacity="0.74" d="M568.752 418.564H562.706V424.599H568.752V418.564Z" fill="white"/>
<path opacity="0.22" d="M576.697 418.564H570.652V424.599H576.697V418.564Z" fill="white"/>
<path opacity="0.51" d="M584.815 418.564H578.77V424.599H584.815V418.564Z" fill="white"/>
<path opacity="0.7" d="M592.933 418.564H586.887V424.599H592.933V418.564Z" fill="white"/>
<path opacity="0.47" d="M600.878 418.564H594.833V424.599H600.878V418.564Z" fill="white"/>
<path opacity="0.08" d="M608.996 418.564H602.95V424.599H608.996V418.564Z" fill="white"/>
<path opacity="0.93" d="M617.113 418.564H611.068V424.599H617.113V418.564Z" fill="white"/>
<path opacity="0.81" d="M536.453 426.496H530.408V432.532H536.453V426.496Z" fill="white"/>
<path opacity="0.9" d="M544.398 426.496H538.353V432.532H544.398V426.496Z" fill="white"/>
<path opacity="0.55" d="M552.516 426.496H546.471V432.532H552.516V426.496Z" fill="white"/>
<path opacity="0.14" d="M560.634 426.496H554.589V432.532H560.634V426.496Z" fill="white"/>
<path opacity="0.66" d="M568.752 426.496H562.706V432.532H568.752V426.496Z" fill="white"/>
<path opacity="0.92" d="M576.697 426.496H570.652V432.532H576.697V426.496Z" fill="white"/>
<path opacity="0.4" d="M584.815 426.496H578.77V432.532H584.815V426.496Z" fill="white"/>
<path opacity="0.6" d="M592.933 426.496H586.887V432.532H592.933V426.496Z" fill="white"/>
<path opacity="0.99" d="M600.878 426.496H594.833V432.532H600.878V426.496Z" fill="white"/>
<path opacity="0.68" d="M608.996 426.496H602.95V432.532H608.996V426.496Z" fill="white"/>
<path opacity="0.01" d="M617.113 426.496H611.068V432.532H617.113V426.496Z" fill="white"/>
<path opacity="0.82" d="M536.453 434.428H530.408V440.464H536.453V434.428Z" fill="white"/>
<path opacity="0.92" d="M544.398 434.428H538.353V440.464H544.398V434.428Z" fill="white"/>
<path opacity="0.29" d="M552.516 434.428H546.471V440.464H552.516V434.428Z" fill="white"/>
<path opacity="0.73" d="M560.634 434.428H554.589V440.464H560.634V434.428Z" fill="white"/>
<path opacity="0.42" d="M568.752 434.428H562.706V440.464H568.752V434.428Z" fill="white"/>
<path opacity="0.06" d="M576.697 434.428H570.652V440.464H576.697V434.428Z" fill="white"/>
<path opacity="0.7" d="M584.815 434.428H578.77V440.464H584.815V434.428Z" fill="white"/>
<path opacity="0.97" d="M592.933 434.428H586.887V440.464H592.933V434.428Z" fill="white"/>
<path opacity="0.51" d="M600.878 434.428H594.833V440.464H600.878V434.428Z" fill="white"/>
<path opacity="0.69" d="M608.996 434.428H602.95V440.464H608.996V434.428Z" fill="white"/>
<path opacity="0.49" d="M617.113 434.428H611.068V440.464H617.113V434.428Z" fill="white"/>
<path opacity="0.45" d="M536.453 442.361H530.408V448.396H536.453V442.361Z" fill="white"/>
<path opacity="0.46" d="M544.398 442.361H538.353V448.396H544.398V442.361Z" fill="white"/>
<path opacity="0.04" d="M552.516 442.361H546.471V448.396H552.516V442.361Z" fill="white"/>
<path opacity="0.56" d="M560.634 442.361H554.589V448.396H560.634V442.361Z" fill="white"/>
<path opacity="0.4" d="M568.752 442.361H562.706V448.396H568.752V442.361Z" fill="white"/>
<path opacity="0.59" d="M576.697 442.361H570.652V448.396H576.697V442.361Z" fill="white"/>
<path opacity="0.82" d="M584.815 442.361H578.77V448.396H584.815V442.361Z" fill="white"/>
<path opacity="0.99" d="M592.933 442.361H586.887V448.396H592.933V442.361Z" fill="white"/>
<path opacity="0.1" d="M600.878 442.361H594.833V448.396H600.878V442.361Z" fill="white"/>
<path opacity="0.87" d="M608.996 442.361H602.95V448.396H608.996V442.361Z" fill="white"/>
<path d="M617.113 442.361H611.068V448.396H617.113V442.361Z" fill="white"/>
<path d="M434.375 268.538H377.378V446.845H434.375V268.538Z" fill="#333333"/>
<path d="M403.286 259.57H377.378V269.572H403.286V259.57Z" fill="#333333"/>
<path d="M392.404 253.707H377.378V259.57H392.404V253.707Z" fill="#333333"/>
<path opacity="0.25" d="M410.367 281.126H401.04V290.438H410.367V281.126Z" fill="white"/>
<path opacity="0.15" d="M410.367 304.061H401.04V313.373H410.367V304.061Z" fill="white"/>
<path opacity="0.19" d="M410.367 349.759H401.04V359.071H410.367V349.759Z" fill="white"/>
<path opacity="0.17" d="M410.367 372.521H401.04V381.833H410.367V372.521Z" fill="white"/>
<path opacity="0.22" d="M410.367 395.284H401.04V404.596H410.367V395.284Z" fill="white"/>
<path d="M410.367 418.219H401.04V427.531H410.367V418.219Z" fill="white"/>
<path d="M392.059 367.865H338.688V383.558H392.059V367.865Z" fill="#333333"/>
<path d="M418.658 367.865H392.059V383.558H418.658V367.865Z" fill="#4D4D4D"/>
<path d="M338.688 367.865L355.27 359.933L392.059 367.865H338.688Z" fill="#333333"/>
<path d="M355.27 359.933L392.059 367.865H418.658L355.27 359.933Z" fill="#4D4D4D"/>
<path d="M404.495 378.902H326.425V450.294H404.495V378.902Z" fill="#333333"/>
<path d="M430.403 378.902H404.495V450.294H430.403V378.902Z" fill="#4D4D4D"/>
<path opacity="0.81" d="M424.358 383.903H410.367V389.076H424.358V383.903Z" fill="white"/>
<path opacity="0.76" d="M424.358 393.387H410.367V398.56H424.358V393.387Z" fill="white"/>
<path opacity="0.32" d="M424.358 402.871H410.367V408.045H424.358V402.871Z" fill="white"/>
<path opacity="0.49" d="M424.358 412.528H410.367V417.702H424.358V412.528Z" fill="white"/>
<path opacity="0.99" d="M424.358 431.497H410.367V436.67H424.358V431.497Z" fill="white"/>
<path opacity="0.1" d="M352.852 383.903H338.861V389.076H352.852V383.903Z" fill="white"/>
<path opacity="0.04" d="M372.369 383.903H358.378V389.076H372.369V383.903Z" fill="white"/>
<path opacity="0.07" d="M392.059 383.903H378.069V389.076H392.059V383.903Z" fill="white"/>
<path opacity="0.06" d="M352.852 393.387H338.861V398.56H352.852V393.387Z" fill="white"/>
<path opacity="0.44" d="M372.369 393.387H358.378V398.56H372.369V393.387Z" fill="white"/>
<path opacity="0.24" d="M392.059 393.387H378.069V398.56H392.059V393.387Z" fill="white"/>
<path opacity="0.55" d="M352.852 402.871H338.861V408.045H352.852V402.871Z" fill="white"/>
<path opacity="0.02" d="M372.369 402.871H358.378V408.045H372.369V402.871Z" fill="white"/>
<path opacity="0.14" d="M392.059 402.871H378.069V408.045H392.059V402.871Z" fill="white"/>
<path opacity="0.43" d="M352.852 412.528H338.861V417.702H352.852V412.528Z" fill="white"/>
<path opacity="0.41" d="M372.369 412.528H358.378V417.702H372.369V412.528Z" fill="white"/>
<path opacity="0.46" d="M392.059 412.528H378.069V417.702H392.059V412.528Z" fill="white"/>
<path opacity="0.45" d="M352.852 422.013H338.861V427.186H352.852V422.013Z" fill="white"/>
<path opacity="0.33" d="M372.369 422.013H358.378V427.186H372.369V422.013Z" fill="white"/>
<path opacity="0.05" d="M392.059 422.013H378.069V427.186H392.059V422.013Z" fill="white"/>
<path opacity="0.27" d="M352.852 431.497H338.861V436.671H352.852V431.497Z" fill="white"/>
<path opacity="0.15" d="M372.369 431.497H358.378V436.671H372.369V431.497Z" fill="white"/>
<path opacity="0.7" d="M392.059 431.497H378.069V436.671H392.059V431.497Z" fill="white"/>
<path d="M24.6829 307.51H-23.6788V456.33H24.6829V307.51Z" fill="#333333"/>
<path d="M79.7806 307.51H24.8556V456.33H79.7806V307.51Z" fill="#4D4D4D"/>
<path d="M24.6829 320.099H-23.6788V322.685H24.6829V320.099Z" fill="#4D4D4D"/>
<path d="M79.7806 320.099H24.8556V322.685H79.7806V320.099Z" fill="#333333"/>
<path opacity="0.25" d="M6.71997 325.617H1.53833V330.79H6.71997V325.617Z" fill="white"/>
<path opacity="0.12" d="M20.8831 325.617H15.7014V330.79H20.8831V325.617Z" fill="white"/>
<path opacity="0.47" d="M6.71997 332.687H1.53833V337.86H6.71997V332.687Z" fill="white"/>
<path opacity="0.22" d="M13.8015 332.687H8.61993V337.86H13.8015V332.687Z" fill="white"/>
<path opacity="0.32" d="M20.8831 332.687H15.7014V337.86H20.8831V332.687Z" fill="white"/>
<path opacity="0.28" d="M6.71997 339.757H1.53833V344.931H6.71997V339.757Z" fill="white"/>
<path opacity="0.2" d="M20.8831 339.757H15.7014V344.931H20.8831V339.757Z" fill="white"/>
<path opacity="0.05" d="M6.71997 346.827H1.53833V352.001H6.71997V346.827Z" fill="white"/>
<path opacity="0.08" d="M13.8015 346.827H8.61993V352.001H13.8015V346.827Z" fill="white"/>
<path opacity="0.08" d="M6.71997 353.898H1.53833V359.071H6.71997V353.898Z" fill="white"/>
<path opacity="0.02" d="M13.8015 353.898H8.61993V359.071H13.8015V353.898Z" fill="white"/>
<path opacity="0.2" d="M6.71997 360.968H1.53833V366.141H6.71997V360.968Z" fill="white"/>
<path opacity="0.23" d="M13.8015 360.968H8.61993V366.141H13.8015V360.968Z" fill="white"/>
<path opacity="0.24" d="M13.8015 368.038H8.61993V373.212H13.8015V368.038Z" fill="white"/>
<path opacity="0.02" d="M6.71997 375.108H1.53833V380.281H6.71997V375.108Z" fill="white"/>
<path opacity="0.04" d="M13.8015 375.108H8.61993V380.281H13.8015V375.108Z" fill="white"/>
<path opacity="0.3" d="M20.8831 375.108H15.7014V380.281H20.8831V375.108Z" fill="white"/>
<path opacity="0.4" d="M20.8831 382.006H15.7014V387.18H20.8831V382.006Z" fill="white"/>
<path opacity="0.19" d="M13.8015 389.076H8.61993V394.25H13.8015V389.076Z" fill="white"/>
<path opacity="0.43" d="M20.8831 389.076H15.7014V394.25H20.8831V389.076Z" fill="white"/>
<path opacity="0.42" d="M6.71997 396.146H1.53833V401.32H6.71997V396.146Z" fill="white"/>
<path opacity="0.31" d="M20.8831 396.146H15.7014V401.32H20.8831V396.146Z" fill="white"/>
<path opacity="0.31" d="M6.71997 403.217H1.53833V408.39H6.71997V403.217Z" fill="white"/>
<path opacity="0.33" d="M20.8831 403.217H15.7014V408.39H20.8831V403.217Z" fill="white"/>
<path opacity="0.17" d="M6.71997 410.287H1.53833V415.46H6.71997V410.287Z" fill="white"/>
<path opacity="0.01" d="M13.8015 410.287H8.61993V415.46H13.8015V410.287Z" fill="white"/>
<path opacity="0.48" d="M20.8831 410.287H15.7014V415.46H20.8831V410.287Z" fill="white"/>
<path opacity="0.02" d="M6.71997 417.357H1.53833V422.53H6.71997V417.357Z" fill="white"/>
<path opacity="0.17" d="M13.8015 417.357H8.61993V422.53H13.8015V417.357Z" fill="white"/>
<path opacity="0.42" d="M20.8831 417.357H15.7014V422.53H20.8831V417.357Z" fill="white"/>
<path opacity="0.02" d="M6.71997 424.427H1.53833V429.601H6.71997V424.427Z" fill="white"/>
<path opacity="0.3" d="M20.8831 424.427H15.7014V429.601H20.8831V424.427Z" fill="white"/>
<path opacity="0.05" d="M6.71997 431.498H1.53833V436.671H6.71997V431.498Z" fill="white"/>
<path opacity="0.2" d="M20.8831 431.498H15.7014V436.671H20.8831V431.498Z" fill="white"/>
<path opacity="0.27" d="M6.71997 438.568H1.53833V443.741H6.71997V438.568Z" fill="white"/>
<path opacity="0.13" d="M13.8015 438.568H8.61993V443.741H13.8015V438.568Z" fill="white"/>
<path opacity="0.12" d="M6.71997 445.638H1.53833V450.811H6.71997V445.638Z" fill="white"/>
<path opacity="0.04" d="M13.8015 445.638H8.61993V450.811H13.8015V445.638Z" fill="white"/>
<path opacity="0.3" d="M20.8831 445.638H15.7014V450.811H20.8831V445.638Z" fill="white"/>
<path opacity="0.08" d="M13.8015 325.617H8.61993V330.79H13.8015V325.617Z" fill="white"/>
<path opacity="0.08" d="M13.8015 339.757H8.61993V344.931H13.8015V339.757Z" fill="white"/>
<path opacity="0.01" d="M20.8831 346.827H15.7014V352.001H20.8831V346.827Z" fill="white"/>
<path opacity="0.12" d="M20.8831 353.898H15.7014V359.071H20.8831V353.898Z" fill="white"/>
<path opacity="0.13" d="M6.71997 368.038H1.53833V373.212H6.71997V368.038Z" fill="white"/>
<path opacity="0.07" d="M20.8831 368.038H15.7014V373.212H20.8831V368.038Z" fill="white"/>
<path opacity="0.02" d="M6.71997 382.006H1.53833V387.18H6.71997V382.006Z" fill="white"/>
<path opacity="0.14" d="M13.8015 382.006H8.61993V387.18H13.8015V382.006Z" fill="white"/>
<path opacity="0.02" d="M13.8015 396.146H8.61993V401.32H13.8015V396.146Z" fill="white"/>
<path opacity="0.06" d="M13.8015 403.217H8.61993V408.39H13.8015V403.217Z" fill="white"/>
<path opacity="0.04" d="M13.8015 424.427H8.61993V429.601H13.8015V424.427Z" fill="white"/>
<path opacity="0.04" d="M13.8015 431.498H8.61993V436.671H13.8015V431.498Z" fill="white"/>
<path opacity="0.18" d="M20.8831 438.568H15.7014V443.741H20.8831V438.568Z" fill="white"/>
<g opacity="0.7">
<path opacity="0.7" d="M35.2188 322.685H29.8645V449.777H35.2188V322.685Z" fill="#E6E6E6"/>
<path opacity="0.7" d="M44.373 322.685H39.0187V449.777H44.373V322.685Z" fill="#E6E6E6"/>
<path opacity="0.7" d="M53.6999 322.685H48.3456V449.777H53.6999V322.685Z" fill="#E6E6E6"/>
<path opacity="0.7" d="M63.0268 322.685H57.6725V449.777H63.0268V322.685Z" fill="#E6E6E6"/>
<path opacity="0.7" d="M72.3537 322.685H66.9994V449.777H72.3537V322.685Z" fill="#E6E6E6"/>
</g>
<path d="M107.416 449.777H-0.0161133L107.416 356.312V449.777Z" fill="#333333"/>
<path d="M98.2618 433.222H61.2997V453.915H98.2618V433.222Z" fill="#4D4D4D"/>
<path d="M95.4983 428.394H64.0632V438.051H95.4983V428.394Z" fill="#4D4D4D"/>
<path d="M91.8712 431.325H67.5176L75.9809 417.185H83.4078L91.8712 431.325Z" fill="#4D4D4D"/>
<path d="M88.4168 437.361H71.1448V449.949H88.4168V437.361Z" fill="white"/>
<path d="M90.4893 442.362H69.072V444.948H90.4893V442.362Z" fill="#4D4D4D"/>
<path d="M263.21 467.194C263.728 480.644 253.365 492.198 239.72 492.715C226.248 493.233 214.675 482.714 214.157 469.263C213.639 455.812 224.002 444.259 237.647 443.741C251.119 443.224 262.519 453.743 263.21 467.194Z" fill="#333333"/>
<path d="M259.064 460.468C259.41 468.228 253.365 474.781 245.592 475.126C237.82 475.471 231.257 469.435 230.911 461.675C230.566 453.915 236.611 447.362 244.383 447.017C252.156 446.673 258.719 452.708 259.064 460.468Z" fill="#4D4D4D"/>
<path d="M16.5651 441.844C16.5651 445.121 13.8015 447.88 10.5198 447.88C7.23814 447.88 4.47461 445.121 4.47461 441.844C4.47461 438.568 7.23814 435.809 10.5198 435.809C13.8015 435.809 16.5651 438.396 16.5651 441.844Z" fill="#333333"/>
<path d="M18.6377 447.88C18.6377 452.364 15.0106 455.985 10.5198 455.985C6.02912 455.985 2.40198 452.364 2.40198 447.88C2.40198 443.396 6.02912 439.775 10.5198 439.775C15.0106 439.775 18.6377 443.396 18.6377 447.88Z" fill="#333333"/>
<path d="M14.4924 436.671C14.4924 438.913 12.7652 440.81 10.5199 440.81C8.27451 440.81 6.5473 438.913 6.5473 436.671C6.5473 434.429 8.27451 432.532 10.5199 432.532C12.7652 432.532 14.4924 434.429 14.4924 436.671Z" fill="#333333"/>
<path d="M15.7014 441.844C15.7014 443.741 14.147 445.293 12.2471 445.293C10.3471 445.293 8.79266 443.741 8.79266 441.844C8.79266 439.947 10.3471 438.396 12.2471 438.396C14.147 438.396 15.7014 439.947 15.7014 441.844Z" fill="#4D4D4D"/>
<path d="M13.9742 437.188C13.9742 438.568 12.7652 439.775 11.3835 439.775C10.0017 439.775 8.79266 438.568 8.79266 437.188C8.79266 435.809 10.0017 434.602 11.3835 434.602C12.7652 434.429 13.9742 435.636 13.9742 437.188Z" fill="#4D4D4D"/>
<path d="M131.77 454.433C131.77 458.744 128.142 462.365 123.824 462.365C119.506 462.365 115.879 458.744 115.879 454.433C115.879 450.121 119.334 446.5 123.824 446.5C128.142 446.5 131.77 450.121 131.77 454.433Z" fill="#333333"/>
<path d="M129.006 447.707C129.006 450.639 126.761 453.053 123.824 453.053C120.888 453.053 118.643 450.639 118.643 447.707C118.643 444.776 120.888 442.362 123.824 442.362C126.588 442.362 129.006 444.776 129.006 447.707Z" fill="#333333"/>
<path d="M128.315 448.225C128.315 450.121 126.761 451.673 124.861 451.673C122.961 451.673 121.406 450.121 121.406 448.225C121.406 446.328 122.961 444.776 124.861 444.776C126.761 444.776 128.315 446.328 128.315 448.225Z" fill="#4D4D4D"/>
<path d="M121.061 460.296C120.197 468.573 112.77 474.436 104.653 473.574C96.3619 472.712 90.4894 465.297 91.353 457.192C92.2166 448.915 99.6436 443.052 107.761 443.914C115.879 444.776 121.925 452.019 121.061 460.296Z" fill="#333333"/>
<path d="M117.261 447.018C116.743 452.536 111.907 456.675 106.38 456.157C101.025 455.64 97.0527 450.639 97.5709 445.121C98.0891 439.603 102.925 435.464 108.452 435.981C113.979 436.499 117.779 441.5 117.261 447.018Z" fill="#333333"/>
<path d="M115.879 448.052C115.534 451.674 112.252 454.26 108.798 453.916C105.171 453.571 102.58 450.294 102.925 446.845C103.271 443.224 106.552 440.637 110.007 440.982C113.634 441.327 116.225 444.604 115.879 448.052Z" fill="#4D4D4D"/>
<path d="M199.303 453.053C199.303 460.641 193.258 466.676 185.658 466.676C178.058 466.676 172.013 460.641 172.013 453.053C172.013 445.466 178.058 439.43 185.658 439.43C193.085 439.43 199.303 445.466 199.303 453.053Z" fill="#333333"/>
<path d="M194.467 441.327C194.467 446.5 190.494 450.639 185.486 450.639C180.477 450.639 176.504 446.5 176.504 441.327C176.504 436.154 180.477 432.015 185.486 432.015C190.494 432.187 194.467 436.326 194.467 441.327Z" fill="#333333"/>
<path d="M197.231 453.053C197.231 457.364 193.776 460.986 189.285 460.986C184.967 460.986 181.34 457.537 181.34 453.053C181.34 448.742 184.795 445.121 189.285 445.121C193.603 445.293 197.231 448.742 197.231 453.053Z" fill="#4D4D4D"/>
<path d="M193.258 442.534C193.258 445.81 190.667 448.57 187.213 448.57C183.931 448.57 181.168 445.983 181.168 442.534C181.168 439.258 183.758 436.671 187.213 436.671C190.667 436.498 193.258 439.258 193.258 442.534Z" fill="#4D4D4D"/>
<path d="M169.077 464.434C169.077 474.091 161.132 482.024 151.46 482.024C141.787 482.024 133.842 474.091 133.842 464.434C133.842 454.777 141.787 446.845 151.46 446.845C161.132 446.845 169.077 454.605 169.077 464.434Z" fill="#333333"/>
<path d="M163.032 449.259C163.032 455.812 157.85 461.158 151.46 461.158C145.069 461.158 139.887 455.812 139.887 449.259C139.887 442.706 145.069 437.361 151.46 437.361C157.85 437.361 163.032 442.706 163.032 449.259Z" fill="#333333"/>
<path d="M161.477 450.811C161.477 455.122 158.023 458.399 153.705 458.399C149.387 458.399 145.932 454.95 145.932 450.811C145.932 446.5 149.387 443.051 153.705 443.051C158.023 443.051 161.477 446.5 161.477 450.811Z" fill="#4D4D4D"/>
<path d="M211.739 451.329C211.739 453.398 210.185 454.95 208.285 454.95C206.385 454.95 204.83 453.398 204.83 451.329C204.83 449.259 206.385 447.707 208.285 447.707C210.185 447.707 211.739 449.259 211.739 451.329Z" fill="#333333"/>
<path d="M286.009 447.018C286.009 453.743 280.654 459.089 273.918 459.089C267.182 459.089 261.828 453.743 261.828 447.018C261.828 440.292 267.182 434.947 273.918 434.947C280.654 434.947 286.009 440.292 286.009 447.018Z" fill="#333333"/>
<path d="M290.154 459.089C290.154 468.056 282.9 475.299 273.918 475.299C264.937 475.299 257.683 468.056 257.683 459.089C257.683 450.122 264.937 442.879 273.918 442.879C282.9 442.879 290.154 450.122 290.154 459.089Z" fill="#333333"/>
<path d="M281.864 436.671C281.864 441.155 278.236 444.948 273.918 444.948C269.6 444.948 265.973 441.327 265.973 436.671C265.973 432.188 269.6 428.394 273.918 428.394C278.236 428.394 281.864 432.188 281.864 436.671Z" fill="#333333"/>
<path d="M284.109 447.018C284.109 450.812 281 453.916 277.2 453.916C273.4 453.916 270.291 450.812 270.291 447.018C270.291 443.224 273.4 440.12 277.2 440.12C281 440.12 284.109 443.224 284.109 447.018Z" fill="#4D4D4D"/>
<path d="M280.827 437.706C280.827 440.637 278.409 443.052 275.473 443.052C272.537 443.052 270.119 440.637 270.119 437.706C270.119 434.774 272.537 432.36 275.473 432.36C278.409 432.36 280.827 434.774 280.827 437.706Z" fill="#4D4D4D"/>
<path d="M331.089 462.193C331.089 471.16 323.835 478.403 314.853 478.403C305.872 478.403 298.617 471.16 298.617 462.193C298.617 453.226 305.872 445.983 314.853 445.983C323.835 446.156 331.089 453.398 331.089 462.193Z" fill="#333333"/>
<path d="M325.389 448.397C325.389 454.433 320.553 459.434 314.853 459.434C308.98 459.434 304.144 454.605 304.144 448.397C304.144 442.362 308.98 437.533 314.853 437.533C320.725 437.533 325.389 442.362 325.389 448.397Z" fill="#333333"/>
<path d="M324.007 449.777C324.007 453.743 320.898 456.847 316.926 456.847C312.953 456.847 309.844 453.743 309.844 449.777C309.844 445.811 312.953 442.707 316.926 442.707C320.898 442.707 324.007 445.811 324.007 449.777Z" fill="#4D4D4D"/>
<path d="M595.351 468.746C595.351 483.576 583.433 495.475 568.579 495.475C553.725 495.475 541.807 483.576 541.807 468.746C541.807 453.916 553.725 442.017 568.579 442.017C583.433 442.017 595.351 454.088 595.351 468.746Z" fill="#333333"/>
<path d="M591.378 461.331C591.378 469.781 584.469 476.678 576.006 476.678C567.543 476.678 560.634 469.781 560.634 461.331C560.634 452.881 567.543 445.983 576.006 445.983C584.469 445.983 591.378 452.881 591.378 461.331Z" fill="#4D4D4D"/>
<path d="M629.722 457.192C629.722 469.608 619.532 479.782 607.096 479.782C594.66 479.782 584.469 469.608 584.469 457.192C584.469 444.776 594.66 434.602 607.096 434.602C619.704 434.602 629.722 444.604 629.722 457.192Z" fill="#333333"/>
<path d="M626.268 450.812C626.268 458.054 620.395 463.745 613.314 463.745C606.059 463.745 600.36 457.882 600.36 450.812C600.36 443.741 606.232 437.878 613.314 437.878C620.395 437.878 626.268 443.741 626.268 450.812Z" fill="#4D4D4D"/>
<path d="M572.034 460.813C572.034 473.229 561.843 483.404 549.407 483.404C536.971 483.404 526.781 473.229 526.781 460.813C526.781 448.397 536.971 438.223 549.407 438.223C562.016 438.223 572.034 448.225 572.034 460.813Z" fill="#333333"/>
<path d="M568.579 454.433C568.579 461.675 562.707 467.366 555.625 467.366C548.544 467.366 542.671 461.503 542.671 454.433C542.671 447.19 548.544 441.5 555.625 441.5C562.707 441.5 568.579 447.19 568.579 454.433Z" fill="#4D4D4D"/>
<path d="M502.255 465.987C502.255 478.403 492.064 488.577 479.628 488.577C467.192 488.577 457.002 478.403 457.002 465.987C457.002 453.571 467.192 443.397 479.628 443.397C492.237 443.397 502.255 453.571 502.255 465.987Z" fill="#333333"/>
<path d="M498.8 459.607C498.8 466.849 492.928 472.54 485.846 472.54C478.592 472.54 472.892 466.677 472.892 459.607C472.892 452.364 478.765 446.673 485.846 446.673C492.928 446.673 498.8 452.536 498.8 459.607Z" fill="#4D4D4D"/>
<path d="M474.965 462.193C474.965 474.609 464.774 484.783 452.338 484.783C439.902 484.783 429.712 474.609 429.712 462.193C429.712 449.777 439.902 439.603 452.338 439.603C464.774 439.603 474.965 449.605 474.965 462.193Z" fill="#333333"/>
<path d="M471.51 455.813C471.51 463.055 465.638 468.746 458.556 468.746C451.302 468.746 445.602 462.883 445.602 455.813C445.602 448.57 451.475 442.879 458.556 442.879C465.638 442.879 471.51 448.57 471.51 455.813Z" fill="#4D4D4D"/>
<path d="M492.582 458.571C492.582 465.814 486.71 471.505 479.628 471.505C472.374 471.505 466.674 465.641 466.674 458.571C466.674 451.329 472.547 445.638 479.628 445.638C486.882 445.638 492.582 451.501 492.582 458.571Z" fill="#4D4D4D"/>
<path d="M396.032 459.606C396.032 467.711 389.468 474.436 381.178 474.436C373.06 474.436 366.324 467.883 366.324 459.606C366.324 451.501 372.887 444.776 381.178 444.776C389.468 444.948 396.032 451.501 396.032 459.606Z" fill="#333333"/>
<path d="M393.786 455.467C393.786 460.123 389.986 463.917 385.323 463.917C380.66 463.917 376.86 460.123 376.86 455.467C376.86 450.811 380.66 447.017 385.323 447.017C389.986 447.017 393.786 450.811 393.786 455.467Z" fill="#4D4D4D"/>
<path d="M7.92905 447.88C7.92905 454.778 2.40198 460.296 -4.50683 460.296C-11.4156 460.296 -16.9427 454.778 -16.9427 447.88C-16.9427 440.982 -11.4156 435.464 -4.50683 435.464C2.22926 435.291 7.92905 440.982 7.92905 447.88Z" fill="#333333"/>
<path d="M12.0743 460.296C12.0743 469.608 4.64736 477.023 -4.67952 477.023C-14.0064 477.023 -21.4333 469.608 -21.4333 460.296C-21.4333 450.984 -14.0064 443.569 -4.67952 443.569C4.64736 443.569 12.0743 450.984 12.0743 460.296Z" fill="#333333"/>
<path d="M3.61105 437.188C3.61105 441.844 -0.0160751 445.638 -4.67952 445.638C-9.17024 445.638 -12.9701 441.844 -12.9701 437.188C-12.9701 432.532 -9.34296 428.739 -4.67952 428.739C-0.0160751 428.739 3.61105 432.532 3.61105 437.188Z" fill="#333333"/>
<path d="M6.02902 447.88C6.02902 451.846 2.74734 455.122 -1.22523 455.122C-5.19781 455.122 -8.47949 451.846 -8.47949 447.88C-8.47949 443.913 -5.19781 440.637 -1.22523 440.637C2.74734 440.637 6.02902 443.913 6.02902 447.88Z" fill="#4D4D4D"/>
<path d="M2.57465 438.223C2.57465 441.155 0.156556 443.741 -2.95242 443.741C-5.88868 443.741 -8.47949 441.327 -8.47949 438.223C-8.47949 435.292 -6.0614 432.705 -2.95242 432.705C-0.0161648 432.705 2.57465 435.119 2.57465 438.223Z" fill="#4D4D4D"/>
<path d="M66.8267 452.709C66.8267 458.227 62.336 462.711 56.8089 462.711C51.2818 462.711 46.7911 458.227 46.7911 452.709C46.7911 447.19 51.2818 442.707 56.8089 442.707C62.336 442.707 66.8267 447.19 66.8267 452.709Z" fill="#333333"/>
<path d="M63.3723 444.086C63.3723 447.88 60.436 450.984 56.8089 450.984C53.1817 450.984 50.2455 447.88 50.2455 444.086C50.2455 440.293 53.1817 437.189 56.8089 437.189C60.436 437.361 63.3723 440.293 63.3723 444.086Z" fill="#333333"/>
<path d="M65.2722 452.709C65.2722 455.985 62.6814 458.572 59.3997 458.572C56.118 458.572 53.5272 455.985 53.5272 452.709C53.5272 449.605 56.118 447.018 59.3997 447.018C62.6814 446.845 65.2722 449.432 65.2722 452.709Z" fill="#4D4D4D"/>
<path d="M62.5087 444.949C62.5087 447.363 60.6088 449.26 58.1907 449.26C55.7726 449.26 53.8727 447.363 53.8727 444.949C53.8727 442.534 55.7726 440.638 58.1907 440.638C60.6088 440.465 62.5087 442.534 62.5087 444.949Z" fill="#4D4D4D"/>
</svg>
